<svg width="11" height="12" viewBox="0 0 11 12" fill="none" xmlns="http://www.w3.org/2000/svg">
<path d="M6.08423 5.36033L1.50083 0.296651C1.27977 0.052434 0.921391 0.052434 0.700362 0.296651L0.165784 0.887247C-0.0548913 1.13105 -0.0553158 1.52618 0.164841 1.77055L3.79727 5.80252L0.164841 9.83445C-0.0553158 10.0788 -0.0548913 10.474 0.165784 10.7178L0.700362 11.3084C0.921415 11.5526 1.2798 11.5526 1.50083 11.3084L6.08421 6.24467C6.30526 6.00048 6.30526 5.60455 6.08423 5.36033Z" fill="#B9B6B6"/>
<path d="M10.0842 5.36033L5.50083 0.296651C5.27977 0.052434 4.92139 0.052434 4.70036 0.296651L4.16578 0.887247C3.94511 1.13105 3.94468 1.52618 4.16484 1.77055L7.79727 5.80252L4.16484 9.83445C3.94468 10.0788 3.94511 10.474 4.16578 10.7178L4.70036 11.3084C4.92141 11.5526 5.2798 11.5526 5.50083 11.3084L10.0842 6.24467C10.3053 6.00048 10.3053 5.60455 10.0842 5.36033Z" fill="#B9B6B6"/>
</svg>
